<svg xmlns="http://www.w3.org/2000/svg" viewBox="0 0 38.43 20.87"><defs><style>.cls-1{fill:#2196f3;}.cls-2{isolation:isolate;}.cls-3{fill:#fff;}</style></defs><title>강서</title><g id="레이어_2" data-name="레이어 2"><g id="레이어_1-2" data-name="레이어 1"><g id="btn"><path class="cls-1" d="M35.11,0H3.31C1.48,0,0,4.67,0,10.43S1.48,20.87,3.31,20.87h31.8c1.83,0,3.32-4.67,3.32-10.44S36.94,0,35.11,0Z"/><g id="강서" class="cls-2"><g class="cls-2"><path class="cls-3" d="M13,4.55V6.24a5,5,0,0,1-1.54,3.84A7.36,7.36,0,0,1,7,11.79V10.28A9.75,9.75,0,0,0,8.58,10,4.36,4.36,0,0,0,10,9.36a3.25,3.25,0,0,0,1-1.12,3.74,3.74,0,0,0,.36-1.74V6.05H7.25V4.55ZM16.32,15a3.27,3.27,0,0,1-.21,1.19,2.9,2.9,0,0,1-.58,1,2.84,2.84,0,0,1-.93.61,3.09,3.09,0,0,1-1.2.23,2.73,2.73,0,0,1-2.12-.85A3,3,0,0,1,10.5,15a3.52,3.52,0,0,1,.2-1.18,2.77,2.77,0,0,1,.57-.95,2.72,2.72,0,0,1,.91-.64A3.16,3.16,0,0,1,13.4,12a3.09,3.09,0,0,1,1.2.23,2.91,2.91,0,0,1,.93.64,3,3,0,0,1,.58.95A3.29,3.29,0,0,1,16.32,15ZM14.6,15A2.06,2.06,0,0,0,14.33,14a1,1,0,0,0-.93-.45,1,1,0,0,0-.91.43A1.93,1.93,0,0,0,12.2,15a2,2,0,0,0,.27,1.1,1,1,0,0,0,.9.43,1.07,1.07,0,0,0,.91-.43A1.79,1.79,0,0,0,14.6,15Zm1.83-7.77h1.86V8.72H16.43v3.06H14.75V4.31h1.68Z"/><path class="cls-3" d="M25,4.82V7a10.88,10.88,0,0,1-.22,2.23l0,.09a4.56,4.56,0,0,1,.84.39,4.12,4.12,0,0,1,1,.92,4.51,4.51,0,0,1,.67,1.17,3.92,3.92,0,0,1,.24,1.35v.37H25.92V13a2.26,2.26,0,0,0-.18-.75,3,3,0,0,0-.45-.74,2.79,2.79,0,0,0-.67-.61,1.65,1.65,0,0,0-.41-.18,4.49,4.49,0,0,1-.24.42,4.72,4.72,0,0,1-1.51,1.47,5.48,5.48,0,0,1-2.39.75v-1.5a3.36,3.36,0,0,0,2.5-1.55,6.81,6.81,0,0,0,.71-3.42V4.82Zm3.56,3.25V4.31h1.68V14.1H28.55V9.53H26.69V8.07Z"/></g></g></g></g></g></svg>