<svg xmlns="http://www.w3.org/2000/svg" viewBox="0 0 51 20.87"><defs><style>.cls-1{fill:#2196f3;}.cls-2{isolation:isolate;}.cls-3{fill:#fff;}</style></defs><title>광나루</title><g id="레이어_2" data-name="레이어 2"><g id="레이어_1-2" data-name="레이어 1"><g id="btn"><path class="cls-1" d="M46.6,0H4.4C2,0,0,4.67,0,10.43S2,20.87,4.4,20.87H46.6C49,20.87,51,16.2,51,10.43S49,0,46.6,0Z"/><g id="광나루" class="cls-2"><g class="cls-2"><path class="cls-3" d="M8.16,10.08V7.65H9.92v2.43h3.63v1.44H6.3V10.08ZM11,9.38a3.42,3.42,0,0,0,.37-1,5.46,5.46,0,0,0,.09-.91V5.91H6.35V4.46h6.79v3a9.81,9.81,0,0,1-.08,1.08,1.57,1.57,0,0,1-.34.86ZM15.65,15a3.27,3.27,0,0,1-.21,1.19,2.92,2.92,0,0,1-.59,1,2.84,2.84,0,0,1-.93.61,3.09,3.09,0,0,1-1.2.23,2.75,2.75,0,0,1-2.12-.85A3,3,0,0,1,9.83,15,3.52,3.52,0,0,1,10,13.79a2.66,2.66,0,0,1,1.49-1.59,3.27,3.27,0,0,1,2.41,0,2.91,2.91,0,0,1,.93.64,3,3,0,0,1,.59.95A3.29,3.29,0,0,1,15.65,15Zm-1.73,0a2,2,0,0,0-.27-1.07,1,1,0,0,0-.93-.44,1,1,0,0,0-.9.42,1.83,1.83,0,0,0-.3,1.09,2,2,0,0,0,.27,1.1,1,1,0,0,0,.9.43,1.06,1.06,0,0,0,.91-.43A1.73,1.73,0,0,0,13.92,15Zm1.91-8h1.86V8.48H15.83v3.36H14.15V4.31h1.68Z"/><path class="cls-3" d="M26.55,12.17a4.19,4.19,0,0,1-.85.52,5.59,5.59,0,0,1-1,.36,5.84,5.84,0,0,1-1.1.16,4.87,4.87,0,0,1-1.09-.08,3.47,3.47,0,0,1-1-.36,2.68,2.68,0,0,1-.82-.63,2.81,2.81,0,0,1-.56-1,3.89,3.89,0,0,1-.21-1.34v-5h1.7v5a1.73,1.73,0,0,0,.4,1.21,1.82,1.82,0,0,0,1.07.56,4.23,4.23,0,0,0,1.59-.1,7.21,7.21,0,0,0,1.9-.78Zm2.78-4.1h1.86V9.53H29.33V14.1H27.65V4.31h1.68Z"/><path class="cls-3" d="M37.83,16.07V13.23H33.57V11.78H43.82v1.45H39.59v2.84Zm5.09-7.28v1.47a4.51,4.51,0,0,1-1,.44,9,9,0,0,1-1.24.31,12.52,12.52,0,0,1-1.4.14,11,11,0,0,1-1.41,0,7.48,7.48,0,0,1-1.3-.26,4.11,4.11,0,0,1-1.08-.48,2.37,2.37,0,0,1-.74-.74,2,2,0,0,1-.27-1V7.08h6.32v-1h-6.3V4.62h8V8.48h-6.3v.16a.57.57,0,0,0,.22.44,2,2,0,0,0,.59.31,5.29,5.29,0,0,0,.86.19,8.67,8.67,0,0,0,1,.07,10.57,10.57,0,0,0,1.12,0c.38,0,.75-.09,1.1-.16a6.93,6.93,0,0,0,1-.27A3.26,3.26,0,0,0,42.92,8.79Z"/></g></g></g></g></g></svg>