<svg xmlns="http://www.w3.org/2000/svg" viewBox="0 0 38.43 20.87"><defs><style>.cls-1{fill:#2196f3;}.cls-2{isolation:isolate;}.cls-3{fill:#fff;}</style></defs><title>자산 1</title><g id="레이어_2" data-name="레이어 2"><g id="레이어_1-2" data-name="레이어 1"><g id="btn"><path class="cls-1" d="M35.11,0H3.31C1.48,0,0,4.67,0,10.43S1.48,20.87,3.31,20.87h31.8c1.83,0,3.32-4.67,3.32-10.44S36.94,0,35.11,0Z"/><g id="난지" class="cls-2"><g class="cls-2"><path class="cls-3" d="M14,10.65a4,4,0,0,1-.86.53,5.5,5.5,0,0,1-1.06.36,5.39,5.39,0,0,1-1.14.15,4.79,4.79,0,0,1-1.14-.08,4.18,4.18,0,0,1-1.05-.35,3,3,0,0,1-.88-.65,3.26,3.26,0,0,1-.58-1A3.9,3.9,0,0,1,7,8.28V4.62h1.7V8.33a1.66,1.66,0,0,0,.42,1.2,1.94,1.94,0,0,0,1.14.57A4.45,4.45,0,0,0,12,10a8.05,8.05,0,0,0,2-.79Zm-2.53,2.16v1.37a1.54,1.54,0,0,0,.46,1.19,2.15,2.15,0,0,0,1.19.53,5,5,0,0,0,1.69-.12,7.28,7.28,0,0,0,1.89-.73v1.42a4,4,0,0,1-.86.53,5.5,5.5,0,0,1-1.06.36,7.1,7.1,0,0,1-1.14.14,5.38,5.38,0,0,1-1.14-.08,3.84,3.84,0,0,1-1-.36,2.72,2.72,0,0,1-.88-.66,3.19,3.19,0,0,1-.58-1A4.08,4.08,0,0,1,9.72,14V12.81Zm5-5.4h1.86V8.9H16.43v4.32h-1.7V4.31h1.7Z"/><path class="cls-3" d="M26.13,6.53a6.19,6.19,0,0,1-.43,2.25c-.1.25-.21.49-.32.72l.3.19a5.08,5.08,0,0,1,1,.9,4.56,4.56,0,0,1,.69,1.15,3.45,3.45,0,0,1,.27,1.37v.29H26v-.23a2.38,2.38,0,0,0-.2-1,2.74,2.74,0,0,0-.49-.77,3.23,3.23,0,0,0-.72-.54l-.08,0h0a7.24,7.24,0,0,1-1.87,1.6,6.26,6.26,0,0,1-2.42.82v-1.5a4.52,4.52,0,0,0,1.7-.65,5.54,5.54,0,0,0,1.35-1.2,6,6,0,0,0,.88-1.54,4.67,4.67,0,0,0,.32-1.67V6.5H20.76V5h5.37Zm2.42,7.57V4.29h1.68V14.1Z"/></g></g></g></g></g></svg>