<svg xmlns="http://www.w3.org/2000/svg" viewBox="0 0 38.43 20.87"><defs><style>.cls-1{fill:#2196f3;}.cls-2{isolation:isolate;}.cls-3{fill:#fff;}</style></defs><title>뚝섬</title><g id="레이어_2" data-name="레이어 2"><g id="레이어_1-2" data-name="레이어 1"><g id="btn"><path class="cls-1" d="M35.11,0H3.31C1.48,0,0,4.67,0,10.43S1.48,20.87,3.31,20.87h31.8c1.83,0,3.32-4.67,3.32-10.44S36.94,0,35.11,0Z"/><g id="뚝섬" class="cls-2"><g class="cls-2"><path class="cls-3" d="M11.58,12.09H7.32V10.65H17.57v1.44H13.34v1.05h2.29v4.65H14V14.61H9.06V13.14h2.52Zm1.29-2.71a2.12,2.12,0,0,1-.36.21,3.66,3.66,0,0,1-.79.25,5.39,5.39,0,0,1-.92.11,5.06,5.06,0,0,1-1-.06,3.6,3.6,0,0,1-.91-.3A2.67,2.67,0,0,1,8.16,9a2.49,2.49,0,0,1-.52-.85A3.26,3.26,0,0,1,7.44,7V4.31h3.92V5.73H9.14V7.19a1.1,1.1,0,0,0,.4,1,1.73,1.73,0,0,0,1,.33,3.3,3.3,0,0,0,1.25-.2L12,8.25A3.52,3.52,0,0,1,11.79,7V4.31h4.82V5.73H13.49V7.19a1.11,1.11,0,0,0,.36.93,1.6,1.6,0,0,0,.91.39A3,3,0,0,0,15.9,8.4a2.87,2.87,0,0,0,1-.52V9.39a2.39,2.39,0,0,1-1.26.57A3.84,3.84,0,0,1,14,9.9,3,3,0,0,1,12.87,9.38Z"/><path class="cls-3" d="M24.84,4.47V5a9.32,9.32,0,0,1-.22,2.07,3.36,3.36,0,0,1,.78.34,4.23,4.23,0,0,1,1,.89,4.54,4.54,0,0,1,.68,1.17,3.71,3.71,0,0,1,.25,1.35v.37H25.77v-.46a2.05,2.05,0,0,0-.18-.73,2.94,2.94,0,0,0-.45-.73,2.85,2.85,0,0,0-.67-.57,2.64,2.64,0,0,0-.38-.18,4.87,4.87,0,0,1-.36.59,4.79,4.79,0,0,1-1.52,1.37,5.66,5.66,0,0,1-2.29.68V9.69a3.46,3.46,0,0,0,2.51-1.45A6.14,6.14,0,0,0,23.13,5V4.47Zm1.55,13.31a3,3,0,0,1-1.13-.21,2.92,2.92,0,0,1-.93-.56,2.74,2.74,0,0,1-.61-.83,2.33,2.33,0,0,1-.23-1V12.42h6.57v2.82a2.19,2.19,0,0,1-.24,1,2.64,2.64,0,0,1-.64.81,3.1,3.1,0,0,1-1,.52,3.93,3.93,0,0,1-1.21.19Zm-1.2-2.64a1.1,1.1,0,0,0,.38.84,1.4,1.4,0,0,0,1,.34h.34a2,2,0,0,0,1-.27.9.9,0,0,0,.46-.85V13.88H25.19ZM28.4,7V4.31h1.68v7.47H28.4V8.48H26.61V7Z"/></g></g></g></g></g></svg>