<svg xmlns="http://www.w3.org/2000/svg" viewBox="0 0 38.43 20.87"><defs><style>.cls-1{fill:#2196f3;}.cls-2{isolation:isolate;}.cls-3{fill:#fff;}</style></defs><title>망원</title><g id="레이어_2" data-name="레이어 2"><g id="레이어_1-2" data-name="레이어 1"><g id="btn"><path class="cls-1" d="M35.11,0H3.31C1.48,0,0,4.67,0,10.43S1.48,20.87,3.31,20.87h31.8c1.83,0,3.32-4.67,3.32-10.44S36.94,0,35.11,0Z"/><g id="망원" class="cls-2"><g class="cls-2"><path class="cls-3" d="M13.41,8.67a3.38,3.38,0,0,1-.14,1,2.34,2.34,0,0,1-.5.93,2.62,2.62,0,0,1-1,.71,3.87,3.87,0,0,1-1.59.28,3.92,3.92,0,0,1-1.5-.25,2.63,2.63,0,0,1-1-.65,2.36,2.36,0,0,1-.55-.92A3.51,3.51,0,0,1,7,8.67V4.52h6.42Zm-1.68,0V6H8.67V8.63a1.34,1.34,0,0,0,.39,1.12,1.81,1.81,0,0,0,1.14.3,1.91,1.91,0,0,0,1.15-.29A1.35,1.35,0,0,0,11.73,8.63ZM16.32,15a3.27,3.27,0,0,1-.21,1.19,2.9,2.9,0,0,1-.58,1,2.84,2.84,0,0,1-.93.61,3.09,3.09,0,0,1-1.2.23,2.73,2.73,0,0,1-2.12-.85A3,3,0,0,1,10.5,15a3.52,3.52,0,0,1,.2-1.18,2.77,2.77,0,0,1,.57-.95,2.72,2.72,0,0,1,.91-.64A3.16,3.16,0,0,1,13.4,12a3.09,3.09,0,0,1,1.2.23,2.91,2.91,0,0,1,.93.64,3,3,0,0,1,.58.95A3.29,3.29,0,0,1,16.32,15ZM14.6,15A2.06,2.06,0,0,0,14.33,14a1,1,0,0,0-.93-.45,1,1,0,0,0-.91.43A1.93,1.93,0,0,0,12.2,15a2,2,0,0,0,.27,1.1,1,1,0,0,0,.9.43,1.07,1.07,0,0,0,.91-.43A1.79,1.79,0,0,0,14.6,15Zm1.83-7.77h1.86V8.72H16.43v3.06H14.75V4.31h1.68Z"/><path class="cls-3" d="M22.86,11.18H20.4V9.77H28v1.41H24.62v2H22.86ZM24.14,4a4.75,4.75,0,0,1,1.27.2,3.31,3.31,0,0,1,1,.54,2.52,2.52,0,0,1,.69.83,2.53,2.53,0,0,1-.06,2.35,2.45,2.45,0,0,1-.79.81,3.11,3.11,0,0,1-1,.44,5.3,5.3,0,0,1-1.09.13A4.24,4.24,0,0,1,23,9.16a3.38,3.38,0,0,1-1-.49,2.74,2.74,0,0,1-.77-.82A2.12,2.12,0,0,1,21,6.68a2.19,2.19,0,0,1,.24-1.09,2.52,2.52,0,0,1,.69-.83,3.48,3.48,0,0,1,1-.54A4.39,4.39,0,0,1,24.14,4Zm0,1.49a1.87,1.87,0,0,0-1.13.3,1,1,0,0,0-.42.87,1,1,0,0,0,.44.86,2.38,2.38,0,0,0,2.26,0,1,1,0,0,0,.44-.87,1,1,0,0,0-.47-.87A2,2,0,0,0,24.14,5.51Zm.93,8v.79a1.62,1.62,0,0,0,.43,1.2,1.91,1.91,0,0,0,1.14.54,4.71,4.71,0,0,0,1.68-.1,8,8,0,0,0,2-.72v1.42a4,4,0,0,1-.86.53,5.5,5.5,0,0,1-1.06.36,7.1,7.1,0,0,1-1.14.14,5.38,5.38,0,0,1-1.14-.08,4.67,4.67,0,0,1-1.05-.37,2.9,2.9,0,0,1-.88-.67,3.13,3.13,0,0,1-.58-1,4.08,4.08,0,0,1-.22-1.38v-.66Zm5.26-9.24v9.57H28.65v-.81H26.1V11.66h2.55V4.31Z"/></g></g></g></g></g></svg>