<svg xmlns="http://www.w3.org/2000/svg" viewBox="0 0 38.43 20.87"><defs><style>.cls-1{fill:#2196f3;}.cls-2{isolation:isolate;}.cls-3{fill:#fff;}</style></defs><title>반포</title><g id="레이어_2" data-name="레이어 2"><g id="레이어_1-2" data-name="레이어 1"><g id="btn"><path class="cls-1" d="M35.11,0H3.31C1.48,0,0,4.67,0,10.43S1.48,20.87,3.31,20.87h31.8c1.83,0,3.32-4.67,3.32-10.44S36.94,0,35.11,0Z"/><g id="반포" class="cls-2"><g class="cls-2"><path class="cls-3" d="M9,6.65h3.12V4.44h1.68V8.49a3.85,3.85,0,0,1-.15,1,3,3,0,0,1-.52,1,2.68,2.68,0,0,1-1,.79,3.59,3.59,0,0,1-1.6.32,3.55,3.55,0,0,1-1.5-.29,2.66,2.66,0,0,1-1-.75,2.72,2.72,0,0,1-.56-1,3.61,3.61,0,0,1-.18-1.1v-4H9ZM9,8.12v.25a1.87,1.87,0,0,0,.39,1.34,1.54,1.54,0,0,0,1.14.39,1.74,1.74,0,0,0,1.18-.37,1.5,1.5,0,0,0,.41-1.18V8.12Zm2.54,4.69v1.37A1.54,1.54,0,0,0,12,15.37a2.15,2.15,0,0,0,1.19.53,5,5,0,0,0,1.69-.12,7.28,7.28,0,0,0,1.89-.73v1.42a4,4,0,0,1-.86.53,5.5,5.5,0,0,1-1.06.36,7.1,7.1,0,0,1-1.14.14,5.38,5.38,0,0,1-1.14-.08,3.84,3.84,0,0,1-1-.36,2.72,2.72,0,0,1-.88-.66,3.19,3.19,0,0,1-.58-1A4.08,4.08,0,0,1,9.87,14V12.81Zm5-5.4h1.86V8.9H16.58v4.32h-1.7V4.31h1.7Z"/><path class="cls-3" d="M21.44,4.62h9V6.09H29.13v2.1a2,2,0,0,1-.34,1.14,1.15,1.15,0,0,1-.44.42h2v1.47H26.84v1.44h4.23V14.1H20.82V12.66h4.26V11.22h-3.6V9.75h2A1,1,0,0,1,23,9.33a2,2,0,0,1-.33-1.14V6.09H21.44Zm6,1.47h-3V8.36a2.08,2.08,0,0,0,0,.39,1.31,1.31,0,0,0,.61.85,1.26,1.26,0,0,0,.33.15h1a1.52,1.52,0,0,0,.34-.15,1.47,1.47,0,0,0,.42-.4,1.73,1.73,0,0,0,.19-.45,1.49,1.49,0,0,0,.05-.39Z"/></g></g></g></g></g></svg>