<svg xmlns="http://www.w3.org/2000/svg" viewBox="0 0 38.43 20.87"><defs><style>.cls-1{fill:#2196f3;}.cls-2{isolation:isolate;}.cls-3{fill:#fff;}</style></defs><title>양화</title><g id="레이어_2" data-name="레이어 2"><g id="레이어_1-2" data-name="레이어 1"><g id="btn"><path class="cls-1" d="M35.11,0H3.31C1.48,0,0,4.67,0,10.43S1.48,20.87,3.31,20.87h31.8c1.83,0,3.32-4.67,3.32-10.44S36.94,0,35.11,0Z"/><g id="양화" class="cls-2"><g class="cls-2"><path class="cls-3" d="M10.19,4.41a3.41,3.41,0,0,1,1.45.32,3.14,3.14,0,0,1,1,.78,3.41,3.41,0,0,1,.58,1.12,4.33,4.33,0,0,1,.2,1.28,3.45,3.45,0,0,1-.92,2.55,3.11,3.11,0,0,1-2.32.93,3.1,3.1,0,0,1-1.31-.27,3,3,0,0,1-1-.75,3.22,3.22,0,0,1-.65-1.11A4,4,0,0,1,7,7.91,4.13,4.13,0,0,1,7.22,6.6a3.33,3.33,0,0,1,.61-1.11,3,3,0,0,1,1-.77A3.13,3.13,0,0,1,10.19,4.41Zm0,1.49a1.4,1.4,0,0,0-.77.19,1.57,1.57,0,0,0-.48.48,1.89,1.89,0,0,0-.24.65,3.37,3.37,0,0,0-.07.69,3.51,3.51,0,0,0,.07.72A1.78,1.78,0,0,0,9,9.26a1.3,1.3,0,0,0,.48.45,1.44,1.44,0,0,0,.75.18A1.49,1.49,0,0,0,11,9.71a1.25,1.25,0,0,0,.49-.45,2,2,0,0,0,.25-.65,4.43,4.43,0,0,0,.09-.72,4.27,4.27,0,0,0-.09-.67,2.21,2.21,0,0,0-.28-.65,1.57,1.57,0,0,0-.48-.48A1.35,1.35,0,0,0,10.19,5.9ZM16.32,15a3.27,3.27,0,0,1-.21,1.19,2.9,2.9,0,0,1-.58,1,2.84,2.84,0,0,1-.93.61,3.09,3.09,0,0,1-1.2.23,2.73,2.73,0,0,1-2.12-.85A3,3,0,0,1,10.5,15a3.52,3.52,0,0,1,.2-1.18,2.77,2.77,0,0,1,.57-.95,2.72,2.72,0,0,1,.91-.64A3.16,3.16,0,0,1,13.4,12a3.09,3.09,0,0,1,1.2.23,2.91,2.91,0,0,1,.93.64,3,3,0,0,1,.58.95A3.29,3.29,0,0,1,16.32,15ZM14.6,15A2.06,2.06,0,0,0,14.33,14a1,1,0,0,0-.93-.45,1,1,0,0,0-.91.43A1.93,1.93,0,0,0,12.2,15a2,2,0,0,0,.27,1.1,1,1,0,0,0,.9.43,1.07,1.07,0,0,0,.91-.43A1.79,1.79,0,0,0,14.6,15Zm1.83-3.25H14.75V4.31h1.68V6.06h1.86V7.52H16.43V8.61h1.86v1.46H16.43Z"/><path class="cls-3" d="M27,8.84A2.72,2.72,0,0,1,26.74,10a2.47,2.47,0,0,1-.64.88,2.72,2.72,0,0,1-.93.56l-.25.07v1h2.73v1.44H20.4V12.48h2.76v-.93a2.83,2.83,0,0,1-1.3-.66A2.6,2.6,0,0,1,21,8.84a2.45,2.45,0,0,1,.24-1.11l.07-.14h-.82V6.09h6.91v1.5h-.78a.64.64,0,0,0,.08.14A2.33,2.33,0,0,1,27,8.84ZM20.81,4.58l.81-1.14a2.07,2.07,0,0,0,.86.51A4.58,4.58,0,0,0,24,4.14h2.53V5.55H23.84a6.35,6.35,0,0,1-1.73-.21A3,3,0,0,1,20.81,4.58Zm4.47,4.27A1.26,1.26,0,0,0,25,7.92a1.3,1.3,0,0,0-1-.33,1.44,1.44,0,0,0-.95.3,1.21,1.21,0,0,0-.36,1,1.46,1.46,0,0,0,.35,1,1.2,1.2,0,0,0,.91.37,1.3,1.3,0,0,0,1-.36A1.45,1.45,0,0,0,25.28,8.85Zm4.65-.78h1.86V9.53H29.93V14.1H28.25V4.31h1.68Z"/></g></g></g></g></g></svg>