<svg xmlns="http://www.w3.org/2000/svg" viewBox="0 0 51 20.87"><defs><style>.cls-1{fill:#2196f3;}.cls-2{isolation:isolate;}.cls-3{fill:#fff;}</style></defs><title>여의도</title><g id="레이어_2" data-name="레이어 2"><g id="레이어_1-2" data-name="레이어 1"><g id="btn"><path class="cls-1" d="M46.6,0H4.4C2,0,0,4.67,0,10.43S2,20.87,4.4,20.87H46.6C49,20.87,51,16.2,51,10.43S49,0,46.6,0Z"/><g id="여의도" class="cls-2"><g class="cls-2"><path class="cls-3" d="M9.92,4.55a3,3,0,0,1,1.51.34,2.91,2.91,0,0,1,1,.93,3.24,3.24,0,0,1,.36.75h2V4.31h1.68v9.78H14.76V11.33H12.65a4.15,4.15,0,0,1-.35.57,2.79,2.79,0,0,1-2.38,1.15,2.72,2.72,0,0,1-1.38-.34,3,3,0,0,1-1-.92,4.34,4.34,0,0,1-.61-1.36,6.19,6.19,0,0,1-.21-1.64,7,7,0,0,1,.18-1.61,4.07,4.07,0,0,1,.57-1.36A2.75,2.75,0,0,1,9.92,4.55Zm0,1.51a1.26,1.26,0,0,0-1.29.81,2.78,2.78,0,0,0-.21.87c0,.33-.05.68-.05,1a7.16,7.16,0,0,0,.08,1.07,3.07,3.07,0,0,0,.25.87,1.57,1.57,0,0,0,.47.57,1.21,1.21,0,0,0,.75.22,1.21,1.21,0,0,0,1.24-.76,5.16,5.16,0,0,0,.32-2,8.74,8.74,0,0,0-.06-1,3.07,3.07,0,0,0-.23-.87,1.49,1.49,0,0,0-.47-.58A1.33,1.33,0,0,0,9.92,6.06Zm3.19,2a6.33,6.33,0,0,1,.05.76,7.2,7.2,0,0,1-.08,1.08h1.68V8Z"/><path class="cls-3" d="M27.66,12.48v1.41H20.12V12.48ZM23.78,4.34a3.48,3.48,0,0,1,1.44.3,3,3,0,0,1,1,.79,3.41,3.41,0,0,1,.58,1.14A4.63,4.63,0,0,1,27,7.91a4.29,4.29,0,0,1-.25,1.48,3.39,3.39,0,0,1-.67,1.11,2.84,2.84,0,0,1-1,.71,3.19,3.19,0,0,1-1.29.25,3,3,0,0,1-1.31-.28,3,3,0,0,1-1-.78,3.41,3.41,0,0,1-.65-1.13,4.08,4.08,0,0,1-.22-1.36,4.41,4.41,0,0,1,.21-1.37,3.47,3.47,0,0,1,.61-1.14,2.92,2.92,0,0,1,1-.76A3.24,3.24,0,0,1,23.78,4.34Zm0,1.48A1.4,1.4,0,0,0,23,6a1.5,1.5,0,0,0-.48.49,2.07,2.07,0,0,0-.25.67,4.49,4.49,0,0,0-.06.73,3.51,3.51,0,0,0,.07.72,2.08,2.08,0,0,0,.26.67,1.38,1.38,0,0,0,.48.48,1.44,1.44,0,0,0,.75.18A1.4,1.4,0,0,0,25,9.29a2.16,2.16,0,0,0,.25-.67,4.69,4.69,0,0,0,.09-.73,3.69,3.69,0,0,0-.1-.7A2.12,2.12,0,0,0,25,6.53,1.59,1.59,0,0,0,24.53,6,1.35,1.35,0,0,0,23.78,5.82Zm6.27-1.51V14.1H28.37V4.31Z"/><path class="cls-3" d="M43.28,8.78v1.44a6,6,0,0,1-1.08.48,9.33,9.33,0,0,1-1.29.34c-.33.06-.67.11-1,.14v1.48h4.23V14.1H33.89V12.66h4.26v-1.5h-.06a5.56,5.56,0,0,1-1.31-.3,3.37,3.37,0,0,1-1.06-.62A2.52,2.52,0,0,1,35,9.29a3.13,3.13,0,0,1-.26-1.35V4.62h8.35V6.08H36.42V8.13A1.16,1.16,0,0,0,37.1,9.2a3.92,3.92,0,0,0,1.69.43A8.76,8.76,0,0,0,41,9.48,9.67,9.67,0,0,0,43.28,8.78Z"/></g></g></g></g></g></svg>