<svg xmlns="http://www.w3.org/2000/svg" viewBox="0 0 38.43 20.87"><defs><style>.cls-1{fill:#2196f3;}.cls-2{isolation:isolate;}.cls-3{fill:#fff;}</style></defs><title>이촌</title><g id="레이어_2" data-name="레이어 2"><g id="레이어_1-2" data-name="레이어 1"><g id="btn"><path class="cls-1" d="M35.11,0H3.31C1.48,0,0,4.67,0,10.43S1.48,20.87,3.31,20.87h31.8c1.83,0,3.32-4.67,3.32-10.44S36.94,0,35.11,0Z"/><g id="이촌" class="cls-2"><g class="cls-2"><path class="cls-3" d="M10.35,4.55a3.08,3.08,0,0,1,1.52.34,2.88,2.88,0,0,1,1,.93,4,4,0,0,1,.55,1.36,7,7,0,0,1,.17,1.61,5.13,5.13,0,0,1-.85,3.1,2.81,2.81,0,0,1-2.39,1.16A2.72,2.72,0,0,1,9,12.71a2.93,2.93,0,0,1-1-.92,4.35,4.35,0,0,1-.62-1.36,6.19,6.19,0,0,1-.21-1.64,7,7,0,0,1,.18-1.61,4.07,4.07,0,0,1,.57-1.36,3,3,0,0,1,1-.93A2.92,2.92,0,0,1,10.35,4.55Zm0,1.51a1.33,1.33,0,0,0-.82.22,1.39,1.39,0,0,0-.47.59,2.78,2.78,0,0,0-.21.87c0,.33,0,.68,0,1a7.21,7.21,0,0,0,.07,1.07,3.06,3.06,0,0,0,.26.87,1.57,1.57,0,0,0,.47.57,1.18,1.18,0,0,0,.74.22,1.22,1.22,0,0,0,1.25-.76,5.18,5.18,0,0,0,.31-2,8.74,8.74,0,0,0-.06-1,3.08,3.08,0,0,0-.22-.87,1.49,1.49,0,0,0-.47-.58A1.36,1.36,0,0,0,10.35,6.06Zm4.85,8V4.29h1.68V14.1Z"/><path class="cls-3" d="M28.59,6.21v.9a2.93,2.93,0,0,1-.33,1.35,3.27,3.27,0,0,1,.83.5,2.71,2.71,0,0,1,.68.87A2.4,2.4,0,0,1,30,10.88v.25H28.47v-.22a1.28,1.28,0,0,0-.55-1,1.93,1.93,0,0,0-.83-.35,6.16,6.16,0,0,1-.63.32,8.21,8.21,0,0,1-.84.3h1.22v1.42h4.23v1.44H20.82V11.64h4.26V10.37a9,9,0,0,1-.93.16,24.76,24.76,0,0,1-2.88.27V9.29c.61,0,1.25-.06,1.91-.12A10.45,10.45,0,0,0,25,8.85a3.9,3.9,0,0,0,1.34-.66,1.23,1.23,0,0,0,.4-.48H22V6.21ZM22.23,4.77,23,3.63a1.68,1.68,0,0,0,.85.47,6.56,6.56,0,0,0,1.49.13h2.84V5.64H25.28a8.06,8.06,0,0,1-1.74-.16A2.61,2.61,0,0,1,22.23,4.77Zm7.38,10.41v1.5a5.37,5.37,0,0,1-2.11.91,5.81,5.81,0,0,1-2.31,0,3.62,3.62,0,0,1-1.88-.94,2.66,2.66,0,0,1-.76-2v-1h1.69v1.24a1.09,1.09,0,0,0,.4.86,2,2,0,0,0,1.1.43A5,5,0,0,0,27.45,16,8.83,8.83,0,0,0,29.61,15.18Z"/></g></g></g></g></g></svg>