<svg xmlns="http://www.w3.org/2000/svg" viewBox="0 0 38.43 20.87"><defs><style>.cls-1{fill:#2196f3;}.cls-2{isolation:isolate;}.cls-3{fill:#fff;}</style></defs><title>잠실</title><g id="레이어_2" data-name="레이어 2"><g id="레이어_1-2" data-name="레이어 1"><g id="btn"><path class="cls-1" d="M35.11,0H3.31C1.48,0,0,4.67,0,10.43S1.48,20.87,3.31,20.87h31.8c1.83,0,3.32-4.67,3.32-10.44S36.94,0,35.11,0Z"/><g id="잠실" class="cls-2"><g class="cls-2"><path class="cls-3" d="M12.63,6.2A4.44,4.44,0,0,1,12.24,8,3.63,3.63,0,0,1,13.5,9.15a3.73,3.73,0,0,1,.6,2.06v.3H12.47v-.26A2.16,2.16,0,0,0,12.09,10a1.79,1.79,0,0,0-.79-.62L11,9.68a6.19,6.19,0,0,1-1.87,1.17,7.26,7.26,0,0,1-2.45.51V9.86A5.28,5.28,0,0,0,8.43,9.5a4.56,4.56,0,0,0,1.34-.81,3.51,3.51,0,0,0,.86-1.08,2.54,2.54,0,0,0,.31-1.22V6.32H7.26V4.82h5.37Zm.12,11.58a3,3,0,0,1-1.12-.21A2.92,2.92,0,0,1,10.7,17a2.78,2.78,0,0,1-.62-.83,2.33,2.33,0,0,1-.22-1V12.42h6.57v2.82a2.19,2.19,0,0,1-.24,1,2.67,2.67,0,0,1-.65.81,3.16,3.16,0,0,1-1,.52,4,4,0,0,1-1.21.19Zm-1.2-2.64a1.08,1.08,0,0,0,.39.84,1.36,1.36,0,0,0,1,.34h.35a2,2,0,0,0,1-.27.92.92,0,0,0,.45-.85V13.88H11.55Zm4.88-7.88h1.86V8.72H16.43v3.06H14.75V4.31h1.68Z"/><path class="cls-3" d="M25,4.38v.69a7.25,7.25,0,0,1-.19,1.67,3.34,3.34,0,0,1,.72.33,4.07,4.07,0,0,1,1,.85,4.26,4.26,0,0,1,.68,1.15,3.53,3.53,0,0,1,.25,1.33v.37H25.92v-.46a2,2,0,0,0-.17-.72,2.31,2.31,0,0,0-.44-.69,2.64,2.64,0,0,0-.68-.56,2.07,2.07,0,0,0-.34-.15,4.67,4.67,0,0,1-.38.6,4.83,4.83,0,0,1-1.52,1.34,5.51,5.51,0,0,1-2.29.69V9.32a3.44,3.44,0,0,0,2.49-1.46,5.56,5.56,0,0,0,.69-2.92V4.38Zm5.31,11.45v1.42a6.16,6.16,0,0,1-.93.26,9.18,9.18,0,0,1-1.09.18,11.69,11.69,0,0,1-1.19.08A9,9,0,0,1,26,17.7a7,7,0,0,1-1.07-.23,3.57,3.57,0,0,1-.88-.41,2.08,2.08,0,0,1-.57-.65,1.72,1.72,0,0,1-.22-.9V13.89h5V13h-5V11.58h6.71V15.3H25v.35c0,.21.18.37.55.49a5.49,5.49,0,0,0,1.38.23,11,11,0,0,0,1.77-.1A6.88,6.88,0,0,0,30.33,15.83ZM28.55,4.31h1.68V11H28.55Z"/></g></g></g></g></g></svg>