<svg xmlns="http://www.w3.org/2000/svg" viewBox="0 0 38.43 20.87"><defs><style>.cls-1{fill:#2196f3;}.cls-2{isolation:isolate;}.cls-3{fill:#fff;}</style></defs><title>잠원</title><g id="레이어_2" data-name="레이어 2"><g id="레이어_1-2" data-name="레이어 1"><g id="btn"><path class="cls-1" d="M35.11,0H3.31C1.48,0,0,4.67,0,10.43S1.48,20.87,3.31,20.87h31.8c1.83,0,3.32-4.67,3.32-10.44S36.94,0,35.11,0Z"/><g id="잠원" class="cls-2"><g class="cls-2"><path class="cls-3" d="M12.63,6.2A4.44,4.44,0,0,1,12.24,8,3.63,3.63,0,0,1,13.5,9.15a3.73,3.73,0,0,1,.6,2.06v.3H12.47v-.26A2.16,2.16,0,0,0,12.09,10a1.79,1.79,0,0,0-.79-.62L11,9.68a6.19,6.19,0,0,1-1.87,1.17,7.26,7.26,0,0,1-2.45.51V9.86A5.28,5.28,0,0,0,8.43,9.5a4.56,4.56,0,0,0,1.34-.81,3.51,3.51,0,0,0,.86-1.08,2.54,2.54,0,0,0,.31-1.22V6.32H7.26V4.82h5.37Zm.12,11.58a3,3,0,0,1-1.12-.21A2.92,2.92,0,0,1,10.7,17a2.78,2.78,0,0,1-.62-.83,2.33,2.33,0,0,1-.22-1V12.42h6.57v2.82a2.19,2.19,0,0,1-.24,1,2.67,2.67,0,0,1-.65.81,3.16,3.16,0,0,1-1,.52,4,4,0,0,1-1.21.19Zm-1.2-2.64a1.08,1.08,0,0,0,.39.84,1.36,1.36,0,0,0,1,.34h.35a2,2,0,0,0,1-.27.92.92,0,0,0,.45-.85V13.88H11.55Zm4.88-7.88h1.86V8.72H16.43v3.06H14.75V4.31h1.68Z"/><path class="cls-3" d="M22.86,11.18H20.4V9.77H28v1.41H24.62v2H22.86ZM24.14,4a4.75,4.75,0,0,1,1.27.2,3.31,3.31,0,0,1,1,.54,2.52,2.52,0,0,1,.69.83,2.53,2.53,0,0,1-.06,2.35,2.45,2.45,0,0,1-.79.81,3.11,3.11,0,0,1-1,.44,5.3,5.3,0,0,1-1.09.13A4.24,4.24,0,0,1,23,9.16a3.38,3.38,0,0,1-1-.49,2.74,2.74,0,0,1-.77-.82A2.12,2.12,0,0,1,21,6.68a2.19,2.19,0,0,1,.24-1.09,2.52,2.52,0,0,1,.69-.83,3.48,3.48,0,0,1,1-.54A4.39,4.39,0,0,1,24.14,4Zm0,1.49a1.87,1.87,0,0,0-1.13.3,1,1,0,0,0-.42.87,1,1,0,0,0,.44.86,2.38,2.38,0,0,0,2.26,0,1,1,0,0,0,.44-.87,1,1,0,0,0-.47-.87A2,2,0,0,0,24.14,5.51Zm.93,8v.79a1.62,1.62,0,0,0,.43,1.2,1.91,1.91,0,0,0,1.14.54,4.71,4.71,0,0,0,1.68-.1,8,8,0,0,0,2-.72v1.42a4,4,0,0,1-.86.53,5.5,5.5,0,0,1-1.06.36,7.1,7.1,0,0,1-1.14.14,5.38,5.38,0,0,1-1.14-.08,4.67,4.67,0,0,1-1.05-.37,2.9,2.9,0,0,1-.88-.67,3.13,3.13,0,0,1-.58-1,4.08,4.08,0,0,1-.22-1.38v-.66Zm5.26-9.24v9.57H28.65v-.81H26.1V11.66h2.55V4.31Z"/></g></g></g></g></g></svg>