<svg xmlns="http://www.w3.org/2000/svg" viewBox="0 0 176.9 185.7"><defs><style>.cls-1{fill:none;}.cls-2{fill:#fff;}</style></defs><title>text</title><g id="레이어_2" data-name="레이어 2"><g id="레이어_1-2" data-name="레이어 1"><path class="cls-1" d="M81.4,124.9a5.65,5.65,0,0,0,2.4-2.2,7.65,7.65,0,0,0,.9-4v-6.8H56.4v6.8c0,3.2,1,5.2,2.9,5.9a21.37,21.37,0,0,0,8,1.2h5.9c1.6,0,3.1-.1,4.5-.2A7.44,7.44,0,0,0,81.4,124.9Z"/><path class="cls-1" d="M71.3,158.5a6,6,0,0,0-5.4,2.6,11.19,11.19,0,0,0-1.8,6.6,12.55,12.55,0,0,0,1.6,6.7,6,6,0,0,0,5.4,2.6,6.33,6.33,0,0,0,5.4-2.6,10.85,10.85,0,0,0,1.9-6.7,12.3,12.3,0,0,0-1.6-6.5C75.7,159.4,73.9,158.5,71.3,158.5Z"/><path class="cls-1" d="M26.6,39.3a9.27,9.27,0,0,0,2-6.4,8.51,8.51,0,0,0-2-5.8,7.24,7.24,0,0,0-5.8-2.3,8,8,0,0,0-5.7,2.1,8.08,8.08,0,0,0-2.2,5.9A9.49,9.49,0,0,0,15,39.2a6.91,6.91,0,0,0,5.5,2.4A7.27,7.27,0,0,0,26.6,39.3Z"/><path class="cls-1" d="M112.4,77.8a6.33,6.33,0,0,0,5.4-2.6,10.55,10.55,0,0,0,1.9-6.6,12.3,12.3,0,0,0-1.6-6.5c-1.1-1.8-2.9-2.7-5.6-2.7a6,6,0,0,0-5.4,2.6,12,12,0,0,0-1.8,6.6,12,12,0,0,0,1.6,6.6A6.16,6.16,0,0,0,112.4,77.8Z"/><path class="cls-1" d="M147.6,158.5a6,6,0,0,0-5.4,2.6,11.19,11.19,0,0,0-1.8,6.6,12,12,0,0,0,1.6,6.6,6,6,0,0,0,5.4,2.6,6.33,6.33,0,0,0,5.4-2.6,10.55,10.55,0,0,0,1.9-6.6,12.3,12.3,0,0,0-1.6-6.5C152,159.4,150.2,158.5,147.6,158.5Z"/><polygon class="cls-2" points="58.8 31.8 69.9 31.8 69.9 22.9 58.8 22.9 58.8 4.3 48.6 4.3 48.6 57.7 58.8 57.7 58.8 31.8"/><path class="cls-2" d="M48.6,82.6a29.21,29.21,0,0,0,6.3-2.2,26.79,26.79,0,0,0,5.2-3.2V68.7a41.23,41.23,0,0,1-11.4,4.4,30,30,0,0,1-10.1.7,13.26,13.26,0,0,1-7.2-3.2,9.43,9.43,0,0,1-2.7-7.2V55.2H18.5v7.3a23.34,23.34,0,0,0,1.3,8.3,18.11,18.11,0,0,0,3.5,5.9,17.25,17.25,0,0,0,5.3,4,23.36,23.36,0,0,0,6.3,2.1,30.72,30.72,0,0,0,6.8.5A31.06,31.06,0,0,0,48.6,82.6Z"/><path class="cls-2" d="M27.9,48.9a15.24,15.24,0,0,0,5.6-3.5,17.48,17.48,0,0,0,3.8-5.5,18,18,0,0,0,1.4-7.1,14.67,14.67,0,0,0-1.5-6.7l-.7-1.3h5v-9H0v9H5.1c-.2.4-.4.8-.6,1.3a14.09,14.09,0,0,0-1.4,6.7,18,18,0,0,0,1.3,7.1,17.19,17.19,0,0,0,3.7,5.5,16.11,16.11,0,0,0,5.6,3.5,20.92,20.92,0,0,0,7.2,1.2A19.79,19.79,0,0,0,27.9,48.9ZM15.1,39.3A9.31,9.31,0,0,1,13,32.9c0-2.6.7-4.6,2.2-5.9a7.7,7.7,0,0,1,5.7-2.1,7.53,7.53,0,0,1,5.8,2.3,8.33,8.33,0,0,1,2,5.8,9.8,9.8,0,0,1-2,6.4,7.41,7.41,0,0,1-6,2.4A7.38,7.38,0,0,1,15.1,39.3Z"/><path class="cls-2" d="M20,12.7H35.9V4.2H20.7a30.26,30.26,0,0,1-8.9-1.1A13.83,13.83,0,0,1,6.6,0L1.7,6.8a18.37,18.37,0,0,0,7.8,4.6A37.25,37.25,0,0,0,20,12.7Z"/><path class="cls-2" d="M99.8,55.9a16.33,16.33,0,0,0-3.4,5.7,20.35,20.35,0,0,0-1.2,7.1,18.13,18.13,0,0,0,4.6,12.8c3.1,3.4,7.3,5.1,12.7,5.1a20.94,20.94,0,0,0,7.2-1.3,15.48,15.48,0,0,0,9.1-9.4,20.94,20.94,0,0,0,1.3-7.2,18.66,18.66,0,0,0-1.3-7.1,18.22,18.22,0,0,0-3.5-5.7,16.83,16.83,0,0,0-5.6-3.8,19.47,19.47,0,0,0-14.5,0A14.73,14.73,0,0,0,99.8,55.9Zm7.3,6.1a6.21,6.21,0,0,1,5.4-2.6c2.6,0,4.5.9,5.6,2.7a12.3,12.3,0,0,1,1.6,6.5,10.55,10.55,0,0,1-1.9,6.6,6.46,6.46,0,0,1-5.4,2.6,6,6,0,0,1-5.4-2.6,12,12,0,0,1-1.6-6.6A12,12,0,0,1,107.1,62Z"/><polygon class="cls-2" points="130.8 30.7 141.9 30.7 141.9 22 130.8 22 130.8 4.3 120.7 4.3 120.7 49.1 130.8 49.1 130.8 30.7"/><path class="cls-2" d="M110,15.9V5.7H75.7v9h24.4v2.7c0,4.2-.7,7.7-2.2,10.4A19.41,19.41,0,0,1,92,34.6a27.44,27.44,0,0,1-8.3,3.8,62.69,62.69,0,0,1-9.8,1.7v9.1c11.7-1.1,20.6-4.5,26.8-10.3S110,25.5,110,15.9Z"/><path class="cls-2" d="M76.3,134.7a51.64,51.64,0,0,0,5.8-.6,23.14,23.14,0,0,0,6.7-2.4,12.72,12.72,0,0,0,4.4-4.8,15.42,15.42,0,0,0,1.6-7.5v-16H46.4v15a18.72,18.72,0,0,0,1.5,8,12.15,12.15,0,0,0,4.2,5,16.46,16.46,0,0,0,6.5,2.6,40,40,0,0,0,7.2.7v3.8H40.2v8.6h61.5v-8.6H76.3v-3.8Zm-9-8.7a21.73,21.73,0,0,1-8-1.2c-2-.8-2.9-2.8-2.9-5.9v-6.8H84.7v6.8a7.65,7.65,0,0,1-.9,4,5.65,5.65,0,0,1-2.4,2.2,9.52,9.52,0,0,1-3.6.9c-1.4.1-2.9.2-4.5.2h-6Z"/><path class="cls-2" d="M84.1,154.9a18.74,18.74,0,0,0-5.6-3.9,17.14,17.14,0,0,0-7.2-1.4A19,19,0,0,0,64,151a17.1,17.1,0,0,0-5.5,3.9,16.33,16.33,0,0,0-3.4,5.7,20.35,20.35,0,0,0-1.2,7.1,20.92,20.92,0,0,0,1.2,7.2,16.33,16.33,0,0,0,3.4,5.7,15.47,15.47,0,0,0,5.5,3.8,19,19,0,0,0,7.3,1.3,20.94,20.94,0,0,0,7.2-1.3,16.83,16.83,0,0,0,5.6-3.8,16.55,16.55,0,0,0,3.5-5.7,20.94,20.94,0,0,0,1.3-7.2,18.66,18.66,0,0,0-1.3-7.1A18.22,18.22,0,0,0,84.1,154.9Zm-7.5,19.4a6.46,6.46,0,0,1-5.4,2.6,6,6,0,0,1-5.4-2.6,12.32,12.32,0,0,1-1.6-6.7A11.19,11.19,0,0,1,66,161a6.21,6.21,0,0,1,5.4-2.6c2.6,0,4.5.9,5.6,2.7a13,13,0,0,1-.4,13.2Z"/><polygon class="cls-2" points="165.8 121 165.8 103.3 155.7 103.3 155.7 148.1 165.8 148.1 165.8 129.7 176.9 129.7 176.9 121 165.8 121"/><path class="cls-2" d="M137.7,143.6a16,16,0,0,0,8.4.4,14.67,14.67,0,0,0,6.7-3.4v-9.1a18.71,18.71,0,0,1-5.4,3.1,8.4,8.4,0,0,1-4.8.6,5.12,5.12,0,0,1-3.5-2.3,9.88,9.88,0,0,1-1.3-5.6V113.6h12v-8.5H127.7v21.3a26.87,26.87,0,0,0,1.1,8.1.37.37,0,0,1-.3.1,11.41,11.41,0,0,1-5.7.6,7,7,0,0,1-4.5-2.3c-1.2-1.3-1.7-3.2-1.7-5.6V113.6H125v-8.5H106.5v21.2c0,5.2,1.1,9.1,3.4,11.8a16.82,16.82,0,0,0,8,5.4,19.5,19.5,0,0,0,9.3.4,14.71,14.71,0,0,0,6.2-2.6A12.7,12.7,0,0,0,137.7,143.6Z"/><path class="cls-2" d="M160.4,154.9a16.83,16.83,0,0,0-5.6-3.8,19.47,19.47,0,0,0-14.5,0,15.47,15.47,0,0,0-5.5,3.8,16.33,16.33,0,0,0-3.4,5.7,20.35,20.35,0,0,0-1.2,7.1,18.13,18.13,0,0,0,4.6,12.8c3.1,3.4,7.3,5.1,12.7,5.1a20.94,20.94,0,0,0,7.2-1.3,15.48,15.48,0,0,0,9.1-9.4,20.94,20.94,0,0,0,1.3-7.2,18.66,18.66,0,0,0-1.3-7.1A16.33,16.33,0,0,0,160.4,154.9Zm-7.5,19.3a6.46,6.46,0,0,1-5.4,2.6,6,6,0,0,1-5.4-2.6,12,12,0,0,1-1.6-6.6,11.19,11.19,0,0,1,1.8-6.6,6.21,6.21,0,0,1,5.4-2.6c2.6,0,4.5.9,5.6,2.7a12.3,12.3,0,0,1,1.6,6.5A12,12,0,0,1,152.9,174.2Z"/></g></g></svg>