<?xml version="1.0" encoding="utf-8"?>
<!-- Generator: Adobe Illustrator 22.0.1, SVG Export Plug-In . SVG Version: 6.00 Build 0)  -->
<svg version="1.1" id="레이어_2_1_" xmlns="http://www.w3.org/2000/svg" xmlns:xlink="http://www.w3.org/1999/xlink" x="0px"
	 y="0px" viewBox="0 0 250 250" style="enable-background:new 0 0 250 250;" xml:space="preserve">
<style type="text/css">
	.st0{clip-path:url(#SVGID_2_);}
	.st1{enable-background:new    ;}
	.st2{fill:#FFFFFF;}
</style>
<g>
	<g>
		<defs>
			<rect id="SVGID_1_" width="250" height="250"/>
		</defs>
		<clipPath id="SVGID_2_">
			<use xlink:href="#SVGID_1_"  style="overflow:visible;"/>
		</clipPath>
		<g id="레이어_3" class="st0">
			<g id="레이어_1">
				<g id="그룹_296" transform="translate(463 3)">
					<g class="st1">
						<path class="st2" d="M-387.3,63.1c0,2.6-0.5,5-1.4,7.1s-2.2,3.9-3.8,5.5c-1.6,1.5-3.4,2.7-5.6,3.5s-4.5,1.2-7.1,1.2
							s-5-0.4-7.2-1.2c-2.2-0.8-4.1-2-5.6-3.5c-1.6-1.6-2.9-3.4-3.7-5.5c-0.9-2.1-1.3-4.5-1.3-7.1c0-2.5,0.5-4.7,1.4-6.7
							c0.2-0.4,0.4-0.8,0.6-1.3h-5.1v-9h41.5v9h-5l0.7,1.3C-387.8,58.3-387.3,60.5-387.3,63.1z M-424.3,37.1l4.9-6.8
							c1.3,1.3,3,2.4,5.2,3.1c2.2,0.8,5.1,1.1,8.9,1.1h15.2V43H-406c-4,0-7.4-0.4-10.4-1.3C-419.4,40.9-422,39.4-424.3,37.1z
							 M-397.5,63.2c0-2.4-0.7-4.3-2-5.8s-3.2-2.3-5.8-2.3c-2.3,0-4.2,0.7-5.7,2.1c-1.4,1.4-2.2,3.4-2.2,5.9c0,2.6,0.7,4.8,2.1,6.4
							s3.2,2.4,5.5,2.4c2.6,0,4.6-0.8,6-2.4C-398.2,68-397.5,65.8-397.5,63.2z M-397.4,85.6v8.2c0,3.1,0.9,5.4,2.7,7.2
							c1.8,1.7,4.2,2.8,7.2,3.2c3,0.4,6.4,0.1,10.1-0.7c3.7-0.8,7.5-2.3,11.4-4.4v8.5c-1.5,1.2-3.2,2.3-5.2,3.2
							c-2,0.9-4.1,1.6-6.3,2.2c-2.2,0.5-4.5,0.8-6.8,0.9s-4.6-0.1-6.8-0.5c-2.2-0.4-4.3-1.1-6.3-2.1s-3.8-2.3-5.3-4
							c-1.4-1.6-2.6-3.6-3.5-5.9s-1.3-5.1-1.3-8.3v-7.3h10.1L-397.4,85.6L-397.4,85.6z M-367.3,53.2h11.2v8.9h-11.2V88h-10.2V34.5
							h10.2V53.2z"/>
					</g>
					<g class="st1">
						<path class="st2" d="M-316.1,36v10.2c0,9.6-3.1,17.3-9.3,23c-6.2,5.8-15.1,9.2-26.8,10.3v-9.1c3.4-0.3,6.6-0.9,9.8-1.7
							c3.1-0.8,5.9-2.1,8.3-3.8c2.5-1.7,4.4-4,5.9-6.8s2.2-6.2,2.2-10.4V45h-24.4v-9H-316.1z M-296,98.9c0,2.6-0.4,5-1.3,7.2
							s-2,4.1-3.5,5.7c-1.6,1.6-3.4,2.8-5.6,3.7c-2.2,0.9-4.6,1.3-7.2,1.3c-5.4,0-9.6-1.7-12.7-5.1s-4.6-7.7-4.6-12.8
							c0-2.5,0.4-4.9,1.2-7.1c0.8-2.2,1.9-4.1,3.4-5.7s3.3-2.9,5.5-3.8s4.6-1.4,7.3-1.4c2.6,0,5,0.5,7.2,1.4s4,2.2,5.6,3.8
							c1.5,1.6,2.7,3.5,3.5,5.7S-296,96.4-296,98.9z M-306.3,98.9c0-2.5-0.5-4.7-1.6-6.5s-2.9-2.7-5.6-2.7c-2.5,0-4.3,0.9-5.4,2.6
							s-1.8,3.9-1.8,6.6s0.5,4.9,1.6,6.6s2.9,2.6,5.4,2.6c2.3,0,4.2-0.9,5.4-2.6C-307,103.8-306.3,101.6-306.3,98.9z M-295.3,52.3
							h11.2V61h-11.2v18.4h-10.1V34.5h10.1V52.3z"/>
					</g>
				</g>
				<g id="그룹_297" transform="translate(464 3)">
					<g class="st1">
						<path class="st2" d="M-332.3,148.6c0,3-0.5,5.5-1.6,7.5s-2.6,3.6-4.4,4.8c-1.9,1.1-4.1,2-6.7,2.4c-1.8,0.4-3.7,0.6-5.8,0.6
							v3.8h25.4v8.6h-61.5v-8.6h25.6v-3.8c-2.6-0.1-5-0.3-7.2-0.7c-2.5-0.5-4.7-1.3-6.5-2.6c-1.8-1.2-3.2-2.8-4.2-5
							c-1-2.1-1.5-4.8-1.5-8v-15h48.4L-332.3,148.6L-332.3,148.6z M-338.3,196.9c0,2.6-0.4,5-1.3,7.2c-0.8,2.2-2,4.1-3.5,5.7
							c-1.6,1.6-3.4,2.9-5.6,3.8c-2.2,0.9-4.6,1.3-7.2,1.3c-2.7,0-5.1-0.5-7.3-1.3c-2.2-0.9-4-2.2-5.5-3.8s-2.6-3.5-3.4-5.7
							s-1.2-4.6-1.2-7.2c0-2.5,0.4-4.9,1.2-7.1c0.8-2.2,1.9-4.1,3.4-5.7c1.5-1.6,3.3-2.9,5.5-3.9s4.6-1.4,7.3-1.4
							c2.6,0,5,0.5,7.2,1.4c2.2,1,4,2.3,5.6,3.9c1.5,1.6,2.7,3.5,3.5,5.7C-338.7,192-338.3,194.4-338.3,196.9z M-342.4,148v-6.8
							h-28.3v6.8c0,3.2,1,5.2,2.9,5.9c1.9,0.8,4.6,1.2,8,1.2h5.9c1.6,0,3.1-0.1,4.5-0.2c1.4-0.1,2.6-0.4,3.6-0.9s1.8-1.2,2.4-2.2
							C-342.7,151-342.4,149.7-342.4,148z M-348.6,196.9c0-2.5-0.5-4.7-1.6-6.5s-2.9-2.7-5.6-2.7c-2.5,0-4.3,0.9-5.4,2.6
							s-1.8,3.9-1.8,6.6s0.5,4.9,1.6,6.7s2.9,2.6,5.4,2.6c2.3,0,4.2-0.9,5.4-2.6C-349.3,201.8-348.6,199.6-348.6,196.9z"/>
					</g>
					<g class="st1">
						<path class="st2" d="M-293.7,170.4c-1.6,1.2-3.6,2.1-6.2,2.6c-3.1,0.7-6.2,0.5-9.3-0.4s-5.7-2.7-8-5.4s-3.4-6.6-3.4-11.8
							v-21.2h18.5v8.5h-8.4v13.7c-0.1,2.5,0.5,4.3,1.7,5.6s2.7,2.1,4.5,2.3c1.7,0.2,3.6,0,5.7-0.6c0.1,0,0.2,0,0.3-0.1
							c-0.7-2.2-1.1-4.9-1.1-8.1v-21.3h22.1v8.5h-12v13.7c-0.1,2.5,0.4,4.3,1.3,5.6s2.1,2.1,3.5,2.3s3,0,4.8-0.6
							c1.8-0.7,3.6-1.7,5.4-3.1v9.1c-1.6,1.6-3.8,2.8-6.7,3.4c-2.8,0.7-5.6,0.5-8.4-0.4C-291,172.3-292.5,171.5-293.7,170.4z
							 M-262,196.9c0,2.6-0.4,5-1.3,7.2s-2,4.1-3.5,5.7c-1.6,1.6-3.4,2.8-5.6,3.7s-4.6,1.3-7.2,1.3c-5.4,0-9.6-1.7-12.7-5.1
							c-3.1-3.4-4.6-7.7-4.6-12.8c0-2.5,0.4-4.9,1.2-7.1c0.8-2.2,1.9-4.1,3.4-5.7c1.5-1.6,3.3-2.9,5.5-3.8c2.2-0.9,4.6-1.4,7.3-1.4
							c2.6,0,5,0.5,7.2,1.4s4,2.2,5.6,3.8c1.5,1.6,2.7,3.5,3.5,5.7S-262,194.4-262,196.9z M-272.3,196.9c0-2.5-0.5-4.7-1.6-6.5
							s-2.9-2.7-5.6-2.7c-2.5,0-4.3,0.9-5.4,2.6s-1.8,3.9-1.8,6.6s0.5,4.9,1.6,6.6s2.9,2.6,5.4,2.6c2.3,0,4.2-0.9,5.4-2.6
							C-273,201.8-272.3,199.6-272.3,196.9z M-261.3,150.3h11.2v8.7h-11.2v18.4h-10.1v-44.8h10.1V150.3z"/>
					</g>
				</g>
			</g>
		</g>
	</g>
</g>
</svg>
