<svg xmlns="http://www.w3.org/2000/svg" xmlns:xlink="http://www.w3.org/1999/xlink" width="250" height="250" viewBox="0 0 250 250">
  <defs>
    <filter id="Rounded_Rectangle_Mask" x="-9" y="-6" width="268" height="268" filterUnits="userSpaceOnUse">
      <feOffset dy="3" input="SourceAlpha"/>
      <feGaussianBlur stdDeviation="3" result="blur"/>
      <feFlood flood-opacity="0.161"/>
      <feComposite operator="in" in2="blur"/>
      <feComposite in="SourceGraphic"/>
    </filter>
    <clipPath id="clip-path">
      <g transform="matrix(1, 0, 0, 1, 0, 0)" filter="url(#Rounded_Rectangle_Mask)">
        <rect id="Rounded_Rectangle_Mask-2" data-name="Rounded Rectangle Mask" width="250" height="250" transform="translate(518 72)" fill="#fff"/>
      </g>
    </clipPath>
    <filter id="Rounded_Rectangle_Mask-3" x="-9" y="-6" width="268" height="268" filterUnits="userSpaceOnUse">
      <feOffset dy="3" input="SourceAlpha"/>
      <feGaussianBlur stdDeviation="3" result="blur-2"/>
      <feFlood flood-opacity="0.161"/>
      <feComposite operator="in" in2="blur-2"/>
      <feComposite in="SourceGraphic"/>
    </filter>
  </defs>
  <g id="icon" transform="translate(-518 -72)" clip-path="url(#clip-path)">
    <g id="bg" transform="translate(473 -278)">
      <g transform="matrix(1, 0, 0, 1, 45, 350)" filter="url(#Rounded_Rectangle_Mask-3)">
        <path id="Rounded_Rectangle_Mask-4" data-name="Rounded Rectangle Mask" d="M0,0H250V250H0Z" fill="#1976d2"/>
      </g>
      <path id="패스_422" data-name="패스 422" d="M538.629,1366.147c80.418-24.306,82.788-43.056,140.649-42.785s100.785,49.014,100.785,49.014v68.511H538.629Z" transform="translate(-368.225 -869.628)" fill="#02589b"/>
      <path id="패스_421" data-name="패스 421" d="M438.7,1379.147s30.31-46.278,100.559-42.809c34.047,3.964,54.558,6.266,104.77,53.459,30.815,24.475,57.256,30.965,93.027,36.91,9.925.233,41.268,1.473,64.408-17.588,25.534-21.033,33.021-56.231,33.021-56.231v208.9L438.7,1566.143Z" transform="translate(-466.141 -913.924)" fill="#2196f3"/>
    </g>
  </g>
</svg>
