<svg xmlns="http://www.w3.org/2000/svg" xmlns:xlink="http://www.w3.org/1999/xlink" width="250" height="250" viewBox="0 0 250 250">
  <defs>
    <clipPath id="clip-path">
      <rect id="사각형_384" data-name="사각형 384" width="250" height="250" transform="translate(378 247)" fill="#fff" stroke="#707070" stroke-width="1"/>
    </clipPath>
  </defs>
  <g id="Icon_new" transform="translate(-378 -247)" clip-path="url(#clip-path)">
    <g id="bg" transform="translate(323.552 199.046)">
      <rect id="사각형_384-2" data-name="사각형 384" width="261.555" height="271.091" transform="translate(52.537 48.1)" fill="#1976d2"/>
      <g id="레이어_1" data-name="레이어 1" transform="translate(8.7 147.324)">
        <path id="패스_2089" data-name="패스 2089" d="M213.172,172.079V25.306C154.293-8.185,59.068-8.185.188,25.306V172.079Z" transform="translate(212.72 -0.187)" fill="#1561ad"/>
        <path id="패스_2091" data-name="패스 2091" d="M271.718,159.082V12.3C243.34,28.26,205.084,37.175,165.264,37.112c-39.82.064-78.075-8.855-106.454-24.809V159.082Z" transform="translate(-58.81 12.811)" fill="#1561ad"/>
      </g>
      <g id="레이어_1-2" data-name="레이어 1" transform="translate(-18.552 121.44)">
        <path id="패스_2089-2" data-name="패스 2089" d="M.188,303.334V44.485c54.737-59.064,143.262-59.064,198,0V303.334Z" transform="translate(-0.188 -0.187)" fill="#2196f3"/>
        <path id="패스_2091-2" data-name="패스 2091" d="M58.81,271.369V12.3c26.41,28.165,62.011,43.9,99.068,43.788,37.057.112,72.659-15.623,99.068-43.788V271.369Z" transform="translate(138.98 31.778)" fill="#2196f3"/>
      </g>
    </g>
    <g id="text" transform="translate(306.1 247.9)">
      <path id="패스_2089-3" data-name="패스 2089" d="M191.3,158a5.65,5.65,0,0,0,2.4-2.2,7.646,7.646,0,0,0,.9-4V145H166.3v6.8c0,3.2,1,5.2,2.9,5.9a21.371,21.371,0,0,0,8,1.2h5.9c1.6,0,3.1-.1,4.5-.2A7.436,7.436,0,0,0,191.3,158Z" fill="none"/>
      <path id="패스_2090" data-name="패스 2090" d="M181.2,191.6a5.978,5.978,0,0,0-5.4,2.6,11.193,11.193,0,0,0-1.8,6.6,12.552,12.552,0,0,0,1.6,6.7,5.978,5.978,0,0,0,5.4,2.6,6.331,6.331,0,0,0,5.4-2.6,10.854,10.854,0,0,0,1.9-6.7,12.3,12.3,0,0,0-1.6-6.5C185.6,192.5,183.8,191.6,181.2,191.6Z" fill="none"/>
      <path id="패스_2091-3" data-name="패스 2091" d="M136.5,72.4a9.274,9.274,0,0,0,2-6.4,8.506,8.506,0,0,0-2-5.8,7.239,7.239,0,0,0-5.8-2.3,7.412,7.412,0,0,0-7.9,8,9.49,9.49,0,0,0,2.1,6.4,6.911,6.911,0,0,0,5.5,2.4A7.266,7.266,0,0,0,136.5,72.4Z" fill="none"/>
      <path id="패스_2092" data-name="패스 2092" d="M222.3,110.9a6.332,6.332,0,0,0,5.4-2.6,10.548,10.548,0,0,0,1.9-6.6,12.3,12.3,0,0,0-1.6-6.5c-1.1-1.8-2.9-2.7-5.6-2.7a5.978,5.978,0,0,0-5.4,2.6,13.666,13.666,0,0,0-.2,13.2A6.156,6.156,0,0,0,222.3,110.9Z" fill="none"/>
      <path id="패스_2093" data-name="패스 2093" d="M257.5,191.6a5.978,5.978,0,0,0-5.4,2.6,11.193,11.193,0,0,0-1.8,6.6,11.958,11.958,0,0,0,1.6,6.6,5.978,5.978,0,0,0,5.4,2.6,6.331,6.331,0,0,0,5.4-2.6,10.548,10.548,0,0,0,1.9-6.6,12.3,12.3,0,0,0-1.6-6.5C261.9,192.5,260.1,191.6,257.5,191.6Z" fill="none"/>
      <path id="패스_2094" data-name="패스 2094" d="M168.7,64.9h11.1V56H168.7V37.4H158.5V90.8h10.2Z" fill="#fff"/>
      <path id="패스_2095" data-name="패스 2095" d="M158.5,115.7a29.206,29.206,0,0,0,6.3-2.2,26.79,26.79,0,0,0,5.2-3.2v-8.5a41.234,41.234,0,0,1-11.4,4.4,30.011,30.011,0,0,1-10.1.7,13.263,13.263,0,0,1-7.2-3.2,9.426,9.426,0,0,1-2.7-7.2V88.3H128.4v7.3a23.338,23.338,0,0,0,1.3,8.3,18.11,18.11,0,0,0,3.5,5.9,17.252,17.252,0,0,0,5.3,4,23.361,23.361,0,0,0,6.3,2.1,30.72,30.72,0,0,0,6.8.5A31.064,31.064,0,0,0,158.5,115.7Z" fill="#fff"/>
      <path id="패스_2096" data-name="패스 2096" d="M137.8,82a15.242,15.242,0,0,0,5.6-3.5,17.48,17.48,0,0,0,3.8-5.5,17.983,17.983,0,0,0,1.4-7.1,14.673,14.673,0,0,0-1.5-6.7l-.7-1.3h5v-9H109.9v9H115c-.2.4-.4.8-.6,1.3a14.091,14.091,0,0,0-1.4,6.7,17.968,17.968,0,0,0,1.3,7.1,17.194,17.194,0,0,0,3.7,5.5,16.114,16.114,0,0,0,5.6,3.5,20.92,20.92,0,0,0,7.2,1.2A19.786,19.786,0,0,0,137.8,82ZM125,72.4a9.314,9.314,0,0,1-2.1-6.4c0-2.6.7-4.6,2.2-5.9a7.7,7.7,0,0,1,5.7-2.1,7.526,7.526,0,0,1,5.8,2.3,8.33,8.33,0,0,1,2,5.8,9.8,9.8,0,0,1-2,6.4,8.083,8.083,0,0,1-11.6-.1Z" fill="#fff"/>
      <path id="패스_2097" data-name="패스 2097" d="M129.9,45.8h15.9V37.3H130.6a30.257,30.257,0,0,1-8.9-1.1,13.833,13.833,0,0,1-5.2-3.1l-4.9,6.8a18.372,18.372,0,0,0,7.8,4.6A37.248,37.248,0,0,0,129.9,45.8Z" fill="#fff"/>
      <path id="패스_2098" data-name="패스 2098" d="M209.7,89a16.327,16.327,0,0,0-3.4,5.7,20.349,20.349,0,0,0-1.2,7.1,18.129,18.129,0,0,0,4.6,12.8c3.1,3.4,7.3,5.1,12.7,5.1a20.935,20.935,0,0,0,7.2-1.3,15.481,15.481,0,0,0,9.1-9.4,20.935,20.935,0,0,0,1.3-7.2,18.661,18.661,0,0,0-1.3-7.1,18.217,18.217,0,0,0-3.5-5.7,16.834,16.834,0,0,0-5.6-3.8,19.471,19.471,0,0,0-14.5,0A14.727,14.727,0,0,0,209.7,89Zm7.3,6.1a6.21,6.21,0,0,1,5.4-2.6c2.6,0,4.5.9,5.6,2.7a12.3,12.3,0,0,1,1.6,6.5,10.548,10.548,0,0,1-1.9,6.6,6.458,6.458,0,0,1-5.4,2.6,5.978,5.978,0,0,1-5.4-2.6,11.958,11.958,0,0,1-1.6-6.6A11.958,11.958,0,0,1,217,95.1Z" fill="#fff"/>
      <path id="패스_2099" data-name="패스 2099" d="M240.7,63.8h11.1V55.1H240.7V37.4H230.6V82.2h10.1Z" fill="#fff"/>
      <path id="패스_2100" data-name="패스 2100" d="M219.9,49V38.8H185.6v9H210v2.7c0,4.2-.7,7.7-2.2,10.4a19.415,19.415,0,0,1-5.9,6.8,27.439,27.439,0,0,1-8.3,3.8,62.688,62.688,0,0,1-9.8,1.7v9.1c11.7-1.1,20.6-4.5,26.8-10.3C216.8,66.3,219.9,58.6,219.9,49Z" fill="#fff"/>
      <path id="패스_2101" data-name="패스 2101" d="M186.2,167.8a51.643,51.643,0,0,0,5.8-.6,23.138,23.138,0,0,0,6.7-2.4,12.716,12.716,0,0,0,4.4-4.8,15.424,15.424,0,0,0,1.6-7.5v-16H156.3v15a18.725,18.725,0,0,0,1.5,8,12.148,12.148,0,0,0,4.2,5,16.457,16.457,0,0,0,6.5,2.6,39.959,39.959,0,0,0,7.2.7v3.8H150.1v8.6h61.5v-8.6H186.2v-3.8Zm-9-8.7a21.731,21.731,0,0,1-8-1.2c-2-.8-2.9-2.8-2.9-5.9v-6.8h28.3V152a7.646,7.646,0,0,1-.9,4,5.65,5.65,0,0,1-2.4,2.2,9.521,9.521,0,0,1-3.6.9c-1.4.1-2.9.2-4.5.2h-6Z" fill="#fff"/>
      <path id="패스_2102" data-name="패스 2102" d="M194,188a18.737,18.737,0,0,0-5.6-3.9,17.142,17.142,0,0,0-7.2-1.4,18.994,18.994,0,0,0-7.3,1.4,17.1,17.1,0,0,0-5.5,3.9,16.327,16.327,0,0,0-3.4,5.7,20.349,20.349,0,0,0-1.2,7.1A20.92,20.92,0,0,0,165,208a16.327,16.327,0,0,0,3.4,5.7,15.474,15.474,0,0,0,5.5,3.8,18.983,18.983,0,0,0,7.3,1.3,20.935,20.935,0,0,0,7.2-1.3,16.834,16.834,0,0,0,5.6-3.8,16.546,16.546,0,0,0,3.5-5.7,20.935,20.935,0,0,0,1.3-7.2,18.661,18.661,0,0,0-1.3-7.1A18.217,18.217,0,0,0,194,188Zm-7.5,19.4a6.458,6.458,0,0,1-5.4,2.6,5.978,5.978,0,0,1-5.4-2.6,12.319,12.319,0,0,1-1.6-6.7,11.193,11.193,0,0,1,1.8-6.6,6.21,6.21,0,0,1,5.4-2.6c2.6,0,4.5.9,5.6,2.7a13.029,13.029,0,0,1-.4,13.2Z" fill="#fff"/>
      <path id="패스_2103" data-name="패스 2103" d="M275.7,154.1V136.4H265.6v44.8h10.1V162.8h11.1v-8.7Z" fill="#fff"/>
      <path id="패스_2104" data-name="패스 2104" d="M247.6,176.7a15.965,15.965,0,0,0,8.4.4,14.669,14.669,0,0,0,6.7-3.4v-9.1a18.715,18.715,0,0,1-5.4,3.1,8.4,8.4,0,0,1-4.8.6A5.116,5.116,0,0,1,249,166a9.88,9.88,0,0,1-1.3-5.6V146.7h12v-8.5H237.6v21.3a26.869,26.869,0,0,0,1.1,8.1.367.367,0,0,1-.3.1,11.413,11.413,0,0,1-5.7.6,7.031,7.031,0,0,1-4.5-2.3c-1.2-1.3-1.7-3.2-1.7-5.6V146.7h8.4v-8.5H216.4v21.2c0,5.2,1.1,9.1,3.4,11.8a16.822,16.822,0,0,0,8,5.4,19.5,19.5,0,0,0,9.3.4,14.714,14.714,0,0,0,6.2-2.6A12.7,12.7,0,0,0,247.6,176.7Z" fill="#fff"/>
      <path id="패스_2105" data-name="패스 2105" d="M270.3,188a16.834,16.834,0,0,0-5.6-3.8,19.472,19.472,0,0,0-14.5,0,15.474,15.474,0,0,0-5.5,3.8,16.327,16.327,0,0,0-3.4,5.7,20.349,20.349,0,0,0-1.2,7.1,18.129,18.129,0,0,0,4.6,12.8c3.1,3.4,7.3,5.1,12.7,5.1a20.935,20.935,0,0,0,7.2-1.3,15.481,15.481,0,0,0,9.1-9.4,20.936,20.936,0,0,0,1.3-7.2,18.662,18.662,0,0,0-1.3-7.1A16.327,16.327,0,0,0,270.3,188Zm-7.5,19.3a6.458,6.458,0,0,1-5.4,2.6,5.978,5.978,0,0,1-5.4-2.6,11.958,11.958,0,0,1-1.6-6.6,11.193,11.193,0,0,1,1.8-6.6,6.21,6.21,0,0,1,5.4-2.6c2.6,0,4.5.9,5.6,2.7a12.3,12.3,0,0,1,1.6,6.5A12,12,0,0,1,262.8,207.3Z" fill="#fff"/>
    </g>
  </g>
</svg>
