<svg xmlns="http://www.w3.org/2000/svg" xmlns:xlink="http://www.w3.org/1999/xlink" width="360" height="360" viewBox="0 0 360 360">
  <defs>
    <clipPath id="clip-path">
      <rect id="사각형_385" data-name="사각형 385" width="360" height="360" transform="translate(378 247)" fill="#fff" stroke="#707070" stroke-width="1"/>
    </clipPath>
  </defs>
  <g id="Icon_bg" transform="translate(-378 -247)" clip-path="url(#clip-path)">
    <g id="bg" transform="translate(272.967 247.21)">
      <rect id="사각형_384" data-name="사각형 384" width="376.326" height="390.046" transform="translate(102.282 0)" fill="#1976d2"/>
      <g id="레이어_1" data-name="레이어 1" transform="translate(39.209 142.763)">
        <path id="패스_2089" data-name="패스 2089" d="M306.63,247.506V36.328C221.915-11.86,84.9-11.86.188,36.328V247.506Z" transform="translate(306.145 -0.187)" fill="#1561ad"/>
        <path id="패스_2091" data-name="패스 2091" d="M365.143,223.489V12.3C324.312,35.262,269.269,48.089,211.977,48,154.684,48.09,99.642,35.258,58.81,12.3V223.489Z" transform="translate(-58.81 23.831)" fill="#1561ad"/>
      </g>
      <g id="레이어_1-2" data-name="레이어 1" transform="translate(0 105.522)">
        <path id="패스_2089-2" data-name="패스 2089" d="M.188,436.355V63.924c78.756-84.982,206.126-84.982,284.881,0V436.355Z" transform="translate(-0.188 -0.187)" fill="#2196f3"/>
        <path id="패스_2091-2" data-name="패스 2091" d="M58.81,385.047V12.3c38,40.524,89.222,63.164,142.539,63,53.318.162,104.541-22.479,142.539-63V385.047Z" transform="translate(225.771 51.121)" fill="#2196f3"/>
      </g>
    </g>
  </g>
</svg>
