<svg xmlns="http://www.w3.org/2000/svg" width="200" height="200" viewBox="0 0 200 200">
  <g id="compassv1" transform="translate(0.001 -0.034)">
    <path id="Shape" d="M9.38,57.708a100.009,100.009,0,1,0,179.688-3.181,4.07,4.07,0,1,0-7.26,3.681,91.836,91.836,0,1,1-43-41.5,4.071,4.071,0,1,0,3.6-7.3.4.4,0,0,0-.16,0A100.074,100.074,0,0,0,9.38,57.708Z" transform="translate(0 0)"/>
    <path id="패스_2136" data-name="패스 2136" d="M126.655,25.51a4.158,4.158,0,0,0-3.1,0L20,68.426a4,4,0,0,0,1.56,7.843h56.6v56.562a4,4,0,0,0,3.28,4h0A4,4,0,0,0,86,134.392l42.877-103.6a4,4,0,0,0-2.22-5.282Z" transform="translate(16.936 25.195)" fill="#2196f3"/>
  </g>
</svg>
