<svg xmlns="http://www.w3.org/2000/svg" xmlns:xlink="http://www.w3.org/1999/xlink" width="218" height="218" viewBox="0 0 218 218">
  <defs>
    <filter id="bg" x="0" y="0" width="218" height="218" filterUnits="userSpaceOnUse">
      <feOffset dy="3" input="SourceAlpha"/>
      <feGaussianBlur stdDeviation="3" result="blur"/>
      <feFlood flood-opacity="0.161"/>
      <feComposite operator="in" in2="blur"/>
      <feComposite in="SourceGraphic"/>
    </filter>
  </defs>
  <g id="my_location_btn" data-name="my location btn" transform="translate(9 6)">
    <g transform="matrix(1, 0, 0, 1, -9, -6)" filter="url(#bg)">
      <circle id="bg-2" data-name="bg" cx="100" cy="100" r="100" transform="translate(9 6)" fill="#fddc35"/>
    </g>
    <g id="compassv1" transform="translate(29.051 31.775)">
      <path id="Shape" d="M52.294,0a52.294,52.294,0,1,0,41.23,84.466,2.128,2.128,0,0,0-3.354-2.621,48.04,48.04,0,1,1,10.162-29.551,2.128,2.128,0,1,0,4.257,0A52.353,52.353,0,0,0,52.294,0Z" transform="translate(0 94.79) rotate(-65)"/>
      <path id="패스_2132" data-name="패스 2132" d="M22.971,0,45.8,55.187s-23.444-22.248-23.4-22.248S0,55.332,0,55.332Z" transform="translate(75.666 29.131) rotate(45)" fill="#2196f3"/>
      <path id="Shape-2" data-name="Shape" d="M84.172,132.72a2.127,2.127,0,0,0,2.382-1.273l22.432-54.155a2.129,2.129,0,0,0-2.781-2.781L52.049,96.943a2.128,2.128,0,0,0,.814,4.095H82.459v29.595A2.129,2.129,0,0,0,84.172,132.72ZM63.564,96.781,103.086,80.41,86.715,119.932V98.909a2.129,2.129,0,0,0-2.128-2.128Z" transform="translate(-15.537 -30.774)" fill="#2196f3"/>
    </g>
  </g>
</svg>
